<svg xmlns="http://www.w3.org/2000/svg" version="1.1" xmlns:xlink="http://www.w3.org/1999/xlink" xmlns:svgjs="http://svgjs.dev/svgjs" width="1000" height="444" viewBox="0 0 1000 444"><g transform="matrix(1,0,0,1,-0.6056348047761162,0.556628207441122)"><svg viewBox="0 0 396 176" data-background-color="#020202" preserveAspectRatio="xMidYMid meet" height="444" width="1000" xmlns="http://www.w3.org/2000/svg" xmlns:xlink="http://www.w3.org/1999/xlink"><defs></defs><g id="tight-bounds" transform="matrix(1,0,0,1,0.24008861730862918,-0.22054502015355126)"><svg viewBox="0 0 395.52 176.4411904357158" height="176.4411904357158" width="395.52"><g><svg viewBox="0 0 395.52 176.4411904357158" height="176.4411904357158" width="395.52"><g><svg viewBox="0 0 395.52 176.4411904357158" height="176.4411904357158" width="395.52"><g><svg viewBox="0 0 395.52 176.4411904357158" height="176.4411904357158" width="395.52"><g><svg viewBox="0 0 395.52 176.4411904357158" height="176.4411904357158" width="395.52"><path d="M394.594 37.843C392.735 19.529 387.435 14.437 387.435 14.437 371.165-4.427 350.86-0.361 332.619 2.35 300.414 2.46 268.339 6.489 236.208 8.65 168.767 8.98 100.749 3.558 33.643 16.928 27.339 21.031-6.54 17.734 1.121 40.188 3.129 49.528 10.456 59.894 10.232 68.465 11.236 69.967 12.631 66.524 13.226 68.685 15.309 74.509 18.711 71.762 21.501 75.205 17.614 84.399 20.403 92.054 23.062 100.076 18.377 102.164 12.371 101.175 9.675 108.098 9.396 113.116 7.89 112.164 6.235 111.944 5.026 111.797 2.59 112.347 2.999 113.922 4.394 119.306-1.594 122.42 2.162 127.694-0.422 133.408 3.948 138.353 3.353 144.544 3.278 145.789 3.687 146.851 4.338 147.144 7.22 148.719 3.018 151.796 3.464 155.13 33.029 177.913 65.104 162.162 95.394 172.638 103.259 165.312 97.346 175.239 100.489 173.7 102.943 171.906 104.728 179.341 107.499 175.129 107.927 173.92 107.276 171.063 108.8 171.613 109.6 171.906 110.307 171.832 110.418 170.147 110.586 167.62 109.117 169.195 108.726 167.876 112.947 161.21 111.906 177.07 115.866 176.411 115.68 174.47 114.528 171.686 116.889 172.052 119.232 169.268 119.306 166.961 121.389 173.224 121.463 174.58 121.835 175.532 122.43 176.191 128.938 169.378 135.409 178.609 142.233 175.532 146.417 172.162 150.433 177.363 154.672 176.081 156.16 175.056 157.666 173.224 159.098 176.301 176.632 176.96 195.319 174.213 211.943 176.411 256.364 172.309 303.835 178.096 350.674 172.675 361.719 170.587 373.192 167.62 383.958 165.239 383.958 165.239 392.679 158.719 392.679 129.416S394.538 103.776 394.817 80.443C395.096 57.11 396.398 56.158 394.538 37.843Z" opacity="1" fill="#ffffff" data-fill-palette-color="tertiary"></path><g transform="matrix(1,0,0,1,55.76832,26.230666666666668)"><svg width="283.98335999999995" viewBox="1.5 -22.700000762939453 77.63999938964844 33.900001525878906" height="123.97985710238247" data-palette-color="#000000"><path d="M6.1-3.1L6.1-2.7 6.1-1.3 6.25-0.4Q6.25-0.2 6.18 0.15 6.1 0.5 6.1 0.7L6.1 0.7 5.95 0.8Q5.65 0.9 5.65 0.9L5.65 0.9 4.4 0.9 3.4 1.35 2.3 1.35 1.65 1.1 1.5-0.2Q1.5-0.4 1.53-0.58 1.55-0.75 1.55-0.85L1.55-0.85 1.6-1.85 1.6-2.3Q1.6-2.85 1.63-3.28 1.65-3.7 1.65-3.95L1.65-3.95 1.65-4.1 1.9-4.3 1.8-4.45 1.8-4.8Q1.8-5.25 1.85-5.6 1.9-5.95 1.93-6.48 1.95-7 2-7.8 2.05-8.6 2.05-10L2.05-10Q2.05-10.25 2.02-10.48 2-10.7 2-11L2-11Q2-11.4 2.25-12.15L2.25-12.15 2.55-14.05 2.9-15.55 3-15.65 3-15.95 3.1-15.95Q3.15-15.95 3.15-16.15 3.15-16.35 3.15-16.45L3.15-16.45 3.1-16.85 3.25-16.95 3.25-17.1 3.15-17.15 3.25-17.3Q3.35-17.4 3.35-17.5L3.35-17.5 3.35-18Q3.35-18.1 3.43-18.65 3.5-19.2 3.65-19.93 3.8-20.65 4.05-21.38 4.3-22.1 4.6-22.55L4.6-22.55Q4.8-22.65 5.15-22.68 5.5-22.7 5.85-22.7L5.85-22.7 6.25-22.7 7.05-22.5 7.8-22.5Q8.3-22.4 8.53-21.4 8.75-20.4 9-19.35L9-19.35 9.75-20.35Q10.5-20.65 11.25-21 12-21.35 12.78-21.7 13.55-22.05 14.4-22.28 15.25-22.5 16.3-22.5L16.3-22.5Q16.6-22.5 17.1-22.23 17.6-21.95 18.07-21.58 18.55-21.2 18.93-20.8 19.3-20.4 19.3-20.1L19.3-20.1 19.2-19.85 19.5-19.8 19.55-19.05 19.3-18.45 19.35-18.35Q19.35-18.25 19.28-18.05 19.2-17.85 19.13-17.63 19.05-17.4 18.98-17.2 18.9-17 18.85-16.95L18.85-16.95 18.45-16 18.4-15.4 18.05-15.1 18.1-14.85 17.95-14.7 18.1-14.4 18.1-14.1 17.75-14 17.65-13.1 17.65-12.6 17.75-12.45 17.6-11.8Q17.4-11.8 17.35-11.55 17.3-11.3 17.3-11.2L17.3-11.2 17.6-11.1 17.5-10.9 17.35-10.7 17.2-10.05 16.75-9.3 16.4-8.4 14.9-7.8 13.8-8.4Q13.5-8.4 13.2-8.33 12.9-8.25 12.6-8.25L12.6-8.25Q11.55-8.25 10.9-8.43 10.25-8.6 9.15-8.7L9.15-8.7Q8.95-8.9 8.65-8.97 8.35-9.05 8.05-9.1 7.75-9.15 7.55-9.22 7.35-9.3 7.35-9.5L7.35-9.5Q7.35-9.55 7.4-9.6L7.4-9.6 6.9-10.15 6.5-8.2 6.6-8.05 6.5-7.6 6.6-7.4Q6.35-7.15 6.3-6.68 6.25-6.2 6.25-5.95L6.25-5.95 6.3-5.5 6.25-5.2 6.1-5 6.15-4.5 5.9-3.9 6.1-3.1ZM7.9-11.25L9.95-11.05Q10.35-11.05 10.38-11.05 10.4-11.05 10.43-11.08 10.45-11.1 10.65-11.1 10.85-11.1 11.6-11.1L11.6-11.1Q12.4-11.05 12.98-11.28 13.55-11.5 13.8-12.45L13.8-12.45 14.05-13.35 14.4-15.45 14.85-16.5 15.55-19.35 15.45-19.45Q15.35-19.45 15.15-19.38 14.95-19.3 14.85-19.3L14.85-19.3 13.65-18.85 12.15-18 11.9-18 11.8-17.55Q11.7-17.55 11.53-17.45 11.35-17.35 11.25-17.35L11.25-17.35 10.8-16.6Q10.55-16.6 10.28-16.4 10-16.2 9.73-15.95 9.45-15.7 9.22-15.5 9-15.3 8.95-15.3L8.95-15.3Q8.8-15.1 8.65-15.1L8.65-15.1Q8.55-15.1 8.45-15.13 8.35-15.15 8.25-15.15L8.25-15.15Q7.9-15.15 7.7-14.53 7.5-13.9 7.5-13.7L7.5-13.7Q7.5-13.5 7.6-13.5L7.6-13.5 7.25-13 7.35-12.9 7.3-12.2Q7.3-11.8 7.25-11.8 7.2-11.8 7.15-11.25L7.15-11.25 7.4-11.2Q7.5-11.2 7.65-11.23 7.8-11.25 7.9-11.25L7.9-11.25ZM2.9-13.35L2.9-13.35Q2.9-13.25 2.95-13.15 3-13.05 3-12.95L3-12.95 3.1-13.15 3.1-14Q3.05-13.8 2.98-13.63 2.9-13.45 2.9-13.35ZM2.25-7.45L2.25-7.35 2.35-7.2Q2.45-7.5 2.45-7.9L2.45-7.9 2.45-8.1Q2.4-8 2.33-7.78 2.25-7.55 2.25-7.45L2.25-7.45ZM2.35-6.65L2.25-6.85Q2.15-6.7 2.15-6.45L2.15-6.45 2.15-6.2Q2.35-6.2 2.35-6.55L2.35-6.55 2.35-6.65ZM2.9-12.35L3-12.05 3.1-12.7 3-12.8 2.9-12.35ZM38.1 8.25L38.1 8.25Q38.05 8.15 37.9 7.98 37.75 7.8 37.75 7.6L37.75 7.6Q37.75 7.45 37.85 7.4L37.85 7.4 38.2 7.85 38.35 7.7Q38.3 7.65 38.3 7.5L38.3 7.5Q38.3 7.35 38.37 7.15 38.45 6.95 38.5 6.85L38.5 6.85 38.15 6.8Q38.1 6.8 38.1 6.58 38.1 6.35 37.85 6L37.85 6 38.1 6.1Q38.2 6 38.2 5.8L38.2 5.8Q38.2 5.5 37.95 5.25L37.95 5.25Q37.8 5.4 37.8 5.55L37.8 5.55Q37.8 5.75 37.85 5.85L37.85 5.85 37.75 5.85Q37.7 5.85 37.5 5.75L37.5 5.75Q37.5 5.85 37.5 6.05 37.5 6.25 37.45 6.35L37.45 6.35 37.3 6.35Q37.2 6.25 37.2 6 37.2 5.75 37.1 5.55L37.1 5.55 37.15 5.6Q37.25 5.6 37.22 5.28 37.2 4.95 37.6 4.65L37.6 4.65Q37.6 4.9 37.62 5.03 37.65 5.15 37.65 5.25L37.65 5.25Q37.7 5.15 37.7 4.95L37.7 4.95Q37.7 4.6 37.52 4.38 37.35 4.15 37.35 3.85L37.35 3.85Q37.35 3.8 37.37 3.75 37.4 3.7 37.4 3.65L37.4 3.65 37.1 3.5Q37 3.35 36.97 2.9 36.95 2.45 36.9 2.25L36.9 2.25Q36.9 2.4 36.77 2.48 36.65 2.55 36.7 2.55L36.7 2.55Q36.5 2.45 36.45 2.45L36.45 2.45Q36.35 2.45 36.35 2.55L36.35 2.55Q36.25 2.35 36.2 1.98 36.15 1.6 35.8 1.2L35.8 1.2Q35.6 1.4 35.52 1.43 35.45 1.45 35.45 1.55L35.45 1.55Q35.45 1.6 35.47 1.65 35.5 1.7 35.5 1.8L35.5 1.8Q35.45 1.8 35.42 1.83 35.4 1.85 35.35 1.85L35.35 1.85Q35.15 1.85 35.15 1.65L35.15 1.65 35.3 0.35 35.5 0.35Q35.45 0.3 35.35 0L35.35 0Q35.1 0.2 35.1 0.25L35.1 0.25Q35.15 0.3 35.15 0.35L35.15 0.35 34.85 0.5Q34.75 0.4 34.5-0.13 34.25-0.65 34.2-0.8L34.2-0.8 34.1-1.35Q34-1.65 33.77-2.08 33.55-2.5 33.5-2.85L33.5-2.85 33.5-3.05 33.35-3.1Q33.3-3.35 33.25-3.58 33.2-3.8 33.15-4L33.15-4 33-4.35 32.65-4.55 31.15-8.5Q31-8.7 31-8.9L31-8.9Q31-9 31.02-9.03 31.05-9.05 31.05-9.15L31.05-9.15Q31.05-9.25 30.9-9.55L30.9-9.55 30.2-9.5Q30.1-9.45 29.95-9.45L29.95-9.45Q30-9.5 30-9.5L30-9.5 29.95-9.5Q29.9-9.5 29.85-9.53 29.8-9.55 29.75-9.55L29.75-9.55 29-9.55Q28.5-9.65 28.22-9.8 27.95-9.95 27.7-10.05L27.7-10.05Q27.45-8.8 27.45-8.7L27.45-8.7 27.55-8.25 27.45-8.1Q27.45-8 27.4-7.95 27.35-7.9 27.35-7.85L27.35-7.85 27.45-7.7 27.55-7.7 27.35-7.3 27.35-6.95Q27.35-6.3 27.3-5.98 27.25-5.65 27.17-5.5 27.1-5.35 27.05-5.25 27-5.15 27-4.95L27-4.95 27.1-4.9Q27.05-4.8 27.05-4.75L27.05-4.75Q27.05-4.7 27-4.7L27-4.7Q26.9-4.7 26.9-4.75L26.9-4.75Q26.85-4.8 26.85-4.85L26.85-4.85Q26.8-4.85 26.8-4.5L26.8-4.5 26.9-4.4 26.75-4.05 26.75-2.45 26.75-2.25Q26.75-2.15 26.72-1.78 26.7-1.4 26.7-1.3L26.7-1.3 26.6-1.2 26.7-0.95 26.7-0.25 26.8-0.1 26.8 0.25 26.75 0.45 26.5 0.75 25.35 1.15 24 1.35 22.85 1.2Q22.15 1 21.85 0.5 21.55 0 21.55-0.55L21.55-0.55Q21.55-0.7 21.55-1.1 21.55-1.5 21.6-1.93 21.65-2.35 21.7-2.73 21.75-3.1 21.85-3.2L21.85-3.2 21.95-0.95 22.2-0.65Q22.2-1.4 22.27-2.75 22.35-4.1 22.7-6L22.7-6 22.65-5.9Q22.5-5.9 22.5-6.55L22.5-6.55Q22.5-7.2 22.65-7.2L22.65-7.2Q22.75-6.9 22.75-6.65L22.75-6.65 23.4-9 23.2-9Q23.2-9.35 23.35-9.43 23.5-9.5 23.5-9.6L23.5-9.6 23.4-9.6 23.4-9.95Q23.8-12.8 24.6-15.55 25.4-18.3 26.25-20.7L26.25-20.7Q26.4-21.05 26.57-21.63 26.75-22.2 26.85-22.3L26.85-22.3 27.15-22.5 27.75-22.5Q28.15-22.5 28.6-22.43 29.05-22.35 29.45-22.35L29.45-22.35 29.6-22.35Q29.95-22.1 30.07-21.75 30.2-21.4 30.35-21L30.35-21Q30.35-21 30.32-20.78 30.3-20.55 30.27-20.3 30.25-20.05 30.22-19.83 30.2-19.6 30.15-19.55L30.15-19.55 31.9-20.65Q32-20.75 32.6-20.93 33.2-21.1 33.95-21.25 34.7-21.4 35.4-21.5 36.1-21.6 36.4-21.6L36.4-21.6 36.65-21.35 36.85-21.35 36.75-21.5 37-21.5Q37.05-21.5 37.35-21.35 37.65-21.2 37.7-21.2L37.7-21.2Q38.2-21.05 38.75-21 39.3-20.95 39.75-20.73 40.2-20.5 40.47-20.03 40.75-19.55 40.75-18.55L40.75-18.55 41.05-18.75 41.15-18.55 40.95-18.25 41.05-18 40.8-17.55Q40.8-17.4 40.67-17.13 40.55-16.85 40.55-16.75L40.55-16.75 40.65-16.55Q40.65-16.45 40.4-15.85L40.4-15.85 40.2-15.25 40.3-15.15 40.3-14.85Q40.3-14.7 40.32-14.53 40.35-14.35 40.35-14.2L40.35-14.2Q40.35-13.85 40.1-13.75L40.1-13.75 40.1-13.6Q40.1-13.1 39.67-12.48 39.25-11.85 39.15-11.5L39.15-11.5 39.15-11.25 38.9-11Q38.8-10.9 38.47-10.8 38.15-10.7 38-10.6L38-10.6 37.5-10.4Q37.45-10.4 37.2-10.33 36.95-10.25 36.65-10.15 36.35-10.05 36.07-9.98 35.8-9.9 35.75-9.9L35.75-9.9Q35.85-9.35 36.27-9 36.7-8.65 36.7-8.25L36.7-8.25Q36.7-7.85 36.95-7.3 37.2-6.75 37.47-6.2 37.75-5.65 38-5.25 38.25-4.85 38.25-4.75L38.25-4.75 38.25-4.55 38.15-4.5 37.85-4.65 38.95-2.5 39.25-1.55 39.65-1.3 39.75-1.1 39.6-0.9Q39.7-0.75 39.97-0.38 40.25 0 40.3 0.1L40.3 0.1 40.45 0.25 40.6 0.8Q40.65 0.95 40.65 1.15L40.65 1.15 40.7 1.65 40.95 2.4Q41.05 2.8 41.15 2.95L41.15 2.95 41.5 4.05 41.2 4.25 41.05 4.5 41.3 4.85 41.45 4.75 41.75 4.9 41.95 5.35 42.1 5.2 42.65 6.75 42.65 6.85Q42.65 7 42.72 7.18 42.8 7.35 42.8 7.6L42.8 7.6Q42.8 7.7 42.65 7.8 42.5 7.9 42.5 8.25L42.5 8.25Q42.15 8.1 42.05 8 41.95 7.9 41.9 7.9L41.9 7.9Q41.65 7.9 41.4 8.1 41.15 8.3 41.15 8.45L41.15 8.45Q41.15 8.7 41.2 8.75L41.2 8.75 40.85 8.7 40.8 8.4Q40.7 8.4 40.67 8.43 40.65 8.45 40.6 8.45L40.6 8.45Q40.55 8.45 40.52 8.43 40.5 8.4 40.45 8.4L40.45 8.4 40.45 8.65Q40.45 8.7 40.5 8.7L40.5 8.7 40.45 8.7 40.25 8.35Q40.2 8.5 39.92 8.63 39.65 8.75 39.4 8.75L39.4 8.75 39.3 8.55Q39.1 8.55 38.95 8.85L38.95 8.85Q38.5 8.65 38.1 8.25ZM28.7-13.35L28.7-13.35Q28.6-13.25 28.45-12.78 28.3-12.3 28.1-11.65L28.1-11.65Q28.95-12 29.77-11.93 30.6-11.85 31.3-12.05L31.3-12.05Q31.6-12.1 32.25-12.33 32.9-12.55 33.25-12.65L33.25-12.65Q33.6-12.85 34.02-12.9 34.45-12.95 34.82-13.08 35.2-13.2 35.47-13.55 35.75-13.9 35.75-14.65L35.75-14.65Q35.85-15.4 35.95-15.83 36.05-16.25 36.15-16.63 36.25-17 36.32-17.45 36.4-17.9 36.4-18.65L36.4-18.65Q36-18.65 35.67-18.5 35.35-18.35 34.9-18.35L34.9-18.35Q34.65-18.35 34.42-18.32 34.2-18.3 33.95-18.4L33.95-18.4 33.9-18.45 33.6-18.35Q33.35-18.15 32.87-18 32.4-17.85 31.92-17.73 31.45-17.6 31.1-17.45 30.75-17.3 30.75-17.15L30.75-17.15 30.15-17.05 29.8-17.1 29.45-17.1Q29.45-17 29.37-16.82 29.3-16.65 29.3-16.55L29.3-16.55 29.4-16.25Q29.4-16.35 29.52-16.4 29.65-16.45 29.7-16.45L29.7-16.45Q29.7-15.75 29.32-14.93 28.95-14.1 28.7-13.35ZM38.9 4.65L38.85 4.9Q38.95 5.15 39.1 5.15L39.1 5.15Q39.15 5.15 39.15 4.95L39.15 4.95Q39.15 4.65 39.1 4.2 39.05 3.75 38.9 3.3 38.75 2.85 38.5 2.53 38.25 2.2 37.8 2.2L37.8 2.2 37.8 2.45Q38.05 2.7 38.12 2.68 38.2 2.65 38.6 2.8L38.6 2.8 38.35 3.2 38.35 3.25Q38.35 3.35 38.55 3.5 38.75 3.65 38.75 4L38.75 4Q38.75 4.25 38.6 4.55L38.6 4.55Q38.6 4.55 38.9 4.65L38.9 4.65ZM35.55 2.1L35.55 2.1Q35.8 2.3 35.85 2.6 35.9 2.9 35.9 2.8L35.9 2.8Q35.9 3.1 35.85 3.2L35.85 3.2Q35.65 2.8 35.52 2.58 35.4 2.35 35.4 2.25L35.4 2.25Q35.4 2.1 35.55 2.1ZM21.85-5.15L21.85-3.6 21.65-3.6Q21.65-3.65 21.67-3.85 21.7-4.05 21.72-4.33 21.75-4.6 21.77-4.83 21.8-5.05 21.85-5.15L21.85-5.15ZM38.55 6.15L38.35 6.25Q38.5 6.4 38.6 6.4L38.6 6.4 38.55 6.15ZM36.75 2.95L36.6 2.75Q36.85 2.75 36.85 2.85L36.85 2.85 36.75 2.95ZM38.7 5.55L38.9 5.5Q38.85 5.5 38.75 5.25L38.75 5.25 38.7 5.55ZM45.7-11.7L46.15-12.55Q46.3-13.1 46.65-13.48 47-13.85 47.25-14.35L47.25-14.35Q47.3-14.4 47.55-14.75 47.8-15.1 48.1-15.53 48.4-15.95 48.67-16.28 48.95-16.6 49.05-16.6L49.05-16.6Q49.05-16.8 49.22-17.05 49.4-17.3 49.62-17.53 49.85-17.75 50.07-17.9 50.3-18.05 50.4-18.05L50.4-18.05 50.7-18.05 50.8-17.85 51.25-17.85Q51.5-17.8 51.72-17.63 51.95-17.45 52.2-17.4L52.2-17.4 52.6-17.4Q54.1-17.05 55.57-16.43 57.05-15.8 58.05-14.45L58.05-14.45Q58.3-13.65 58.55-12.93 58.8-12.2 59.1-11.4L59.1-11.4Q59.1-11 59.07-10.38 59.05-9.75 58.95-7.85L58.95-7.85 58.95-7.55Q58.95-7.25 58.77-6.7 58.6-6.15 58.37-5.6 58.15-5.05 57.9-4.65 57.65-4.25 57.5-4.25L57.5-4.25 57.45-4.2Q57.2-3.8 56.57-3.2 55.95-2.6 55.05-2 54.15-1.4 53.05-0.98 51.95-0.55 50.75-0.55L50.75-0.55Q49.95-0.55 49.2-0.73 48.45-0.9 47.8-1.15L47.8-1.15 47.35-1.65 46.25-1.85Q45.95-2.05 45.72-2.43 45.5-2.8 45.3-3.1L45.3-3.1Q44.6-3.85 44.42-4.67 44.25-5.5 44.25-6.65L44.25-6.65Q44.25-6.9 44.3-7.03 44.35-7.15 44.35-7.4L44.35-7.4 44.35-7.55Q44.35-7.6 44.42-7.85 44.5-8.1 44.57-8.38 44.65-8.65 44.72-8.88 44.8-9.1 44.8-9.2L44.8-9.2 45.1-9.6Q45.1-9.75 45.25-9.93 45.4-10.1 45.4-10.2L45.4-10.2 45.5-10.05Q45.55-10.15 45.6-10.4 45.65-10.65 45.7-10.7L45.7-10.7 45.85-11.05Q45.85-11.15 45.92-11.4 46-11.65 46.05-11.75L46.05-11.75 45.8-11.75Q45.75-11.75 45.7-11.7L45.7-11.7ZM48.8-7L48.8-7Q48.8-6.8 48.77-6.45 48.75-6.1 48.75-5.75L48.75-5.75Q48.75-5.25 48.85-4.85L48.85-4.85 49.15-3.25 49.65-3.35Q49.8-3.15 50.1-3.15L50.1-3.15Q50.75-3.15 51.45-3.38 52.15-3.6 52.7-4.1L52.7-4.1 53.6-5.3 54.1-6.45 54.25-7.65Q54.45-8.1 54.5-8.55 54.55-9 54.55-9.45L54.55-9.45 54.55-10.45Q54.55-11.1 54.52-12.13 54.5-13.15 54.05-13.7L54.05-13.7Q53.7-14.1 53.12-14.65 52.55-15.2 52.15-15.2L52.15-15.2Q51.95-15.2 51.67-14.9 51.4-14.6 51.3-14.6L51.3-14.6Q50.85-14.25 50.77-13.7 50.7-13.15 50.45-12.65L50.45-12.65 50.35-11.9Q49.7-10.6 49.25-9.45 48.8-8.3 48.8-7ZM46.75-11.05L46.6-11.05 46.15-10.05Q46.15-9.85 46.1-9.7 46.05-9.55 46.05-9.35L46.05-9.35 46.2-9.3 46.65-10.4Q46.65-10.5 46.67-10.75 46.7-11 46.75-11.05L46.75-11.05ZM45.1-8.6L44.8-8.35Q44.7-8.25 44.7-8L44.7-8 44.65-7.7 44.85-7.9Q44.85-8 44.92-8.15 45-8.3 45-8.35L45-8.35 45.1-8.6ZM45.5-9.5L45.3-9.55Q45.1-9.35 45.1-9.15L45.1-9.15 45.1-9 45.5-9.5ZM46.6-12.25L46.6-12.25Q46.6-12.4 46.5-12.4L46.5-12.4Q46.4-12.4 46.4-12.25L46.4-12.25Q46.4-12.15 46.5-12.15L46.5-12.15Q46.5-12.15 46.6-12.25ZM45.9-8.95L45.7-8.45 45.85-8.55 45.9-8.95ZM62.79 9.75L62.04 10.95 61.74 11.1 61.49 11.05 60.49 11.2 58.89 10.6 58.34 10.6 57.99 9.95 58.09 9.75 57.84 8.85 57.74 8.75Q57.74 8.65 57.69 8.5 57.64 8.35 57.59 8.25L57.59 8.25 58.89 7.15 58.79 6.9 59.44 6Q59.54 6 59.64 5.9L59.64 5.9 59.59 5.8Q59.74 5.65 59.89 5.28 60.04 4.9 60.19 4.53 60.34 4.15 60.47 3.83 60.59 3.5 60.69 3.45L60.69 3.45 61.54 2.15Q61.59 2.05 61.67 1.8 61.74 1.55 61.84 1.45L61.84 1.45 62.74-0.35 62.69-0.55 62.84-0.7Q62.99-0.75 63.22-1.03 63.44-1.3 63.64-1.6 63.84-1.9 63.99-2.2 64.14-2.5 64.14-2.65L64.14-2.65Q64.14-3.1 64.34-3.4 64.54-3.7 64.79-4 65.04-4.3 65.27-4.6 65.49-4.9 65.59-5.35L65.59-5.35 65.79-5.75Q65.84-5.9 66.04-6.1L66.04-6.1Q66.44-6.65 66.69-7 66.94-7.35 67.24-7.95L67.24-7.95 67.04-7.95 68.69-10.1 68.79-10.3Q68.89-10.4 68.94-10.55L68.94-10.55Q68.84-10.9 68.64-11.15 68.44-11.4 68.29-11.65L68.29-11.65 68.19-11.4Q68.04-11.85 67.62-12.58 67.19-13.3 66.69-14.13 66.19-14.95 65.67-15.83 65.14-16.7 64.84-17.4L64.84-17.4 64.49-17.5 63.69-19.55 63.34-20.8Q63.54-20.8 63.84-20.9 64.14-21 64.24-21L64.24-21Q64.54-21 64.97-21 65.39-21 65.79-20.93 66.19-20.85 66.57-20.63 66.94-20.4 67.14-19.95L67.14-19.95 67.89-18.9 68.44-17.8Q68.44-17.75 68.47-17.75 68.49-17.75 68.49-17.7L68.49-17.7Q68.49-17.6 68.42-17.53 68.34-17.45 68.34-17.35L68.34-17.35Q68.34-17.4 68.62-17.03 68.89-16.65 69.24-16.15 69.59-15.65 69.94-15.15 70.29-14.65 70.44-14.45L70.44-14.45Q70.54-14.4 70.59-14.23 70.64-14.05 70.89-14.05L70.89-14.05 70.89-14 73.54-19.05Q73.89-19.55 74.02-19.9 74.14-20.25 74.89-20.25L74.89-20.25 74.94-19.9 75.14-19.9 75.44-20.15Q75.64-20.15 76.02-20 76.39-19.85 76.77-19.63 77.14-19.4 77.42-19.13 77.69-18.85 77.69-18.65L77.69-18.65Q77.69-18.15 77.42-17.57 77.14-17 76.79-16.48 76.44-15.95 76.12-15.53 75.79-15.1 75.69-14.85L75.69-14.85Q75.64-14.7 75.47-14.48 75.29-14.25 75.24-14L75.24-14Q74.94-13.3 74.74-12.85 74.54-12.4 74.39-12.03 74.24-11.65 74.09-11.25 73.94-10.85 73.79-10.35L73.79-10.35 73.64-10.05Q73.99-9.3 74.44-8.6 74.89-7.9 75.34-7.35 75.79-6.8 76.12-6.43 76.44-6.05 76.49-6L76.49-6Q76.79-5.7 76.92-5.25 77.04-4.8 77.34-4.5L77.34-4.5 77.59-4.5Q77.74-4.5 77.87-4.25 77.99-4 78.12-3.68 78.24-3.35 78.34-3.05 78.44-2.75 78.54-2.6L78.54-2.6 79.04-2.15 79.14-1.4 78.74-1.25Q78.69-1.15 78.69-1.15L78.69-1.15Q78.69-1.05 78.84-1.05 78.99-1.05 78.99-1L78.99-1Q78.99-0.9 78.84-0.85 78.69-0.8 78.69-0.7L78.69-0.7 78.69-0.65Q78.69-0.6 78.74-0.55L78.74-0.55 78.19-0.2 76.89 0.15 75.99 0.2Q75.89-0.1 75.39-0.55 74.89-1 74.89-1.3L74.89-1.3 74.94-1.5Q74.94-1.6 74.87-1.65 74.79-1.7 74.79-1.8L74.79-1.8 74.54-1.8 74.49-2.25Q73.29-3.75 72.09-5.8L72.09-5.8 71.74-6.15 71.54-5.7Q71.34-5.55 71.09-5.25 70.84-4.95 70.59-4.6 70.34-4.25 70.17-3.98 69.99-3.7 69.99-3.6L69.99-3.6Q69.44-2.95 69.17-2.25 68.89-1.55 68.49-0.85L68.49-0.85Q67.99-0.55 67.79-0.3L67.79-0.3 67.64-0.55 67.34-0.45 67.29 0.05 67.04 0.8 67.24 1 67.64 0.6 67.64 0.35 67.89 0.25 67.59 1.6 65.99 4.6 65.94 4.9 66.44 4.7 65.74 5.5Q65.54 5.6 65.29 5.8 65.04 6 65.04 6.1L65.04 6.1 64.49 6.4 65.04 5.4 65.29 4.45 65.04 4.6 64.99 4.8Q64.59 5.5 64.32 5.8 64.04 6.1 63.84 6.8L63.84 6.8 63.69 7.2Q64.09 7.15 64.29 6.88 64.49 6.6 64.74 6.6L64.74 6.6 64.89 6.6 64.84 6.8 64.44 7.2 63.94 8.3Q63.89 8.45 63.79 8.75 63.69 9.05 63.62 9.38 63.54 9.7 63.44 9.95 63.34 10.2 63.29 10.2L63.29 10.2Q63.24 10.2 63.24 9.85L63.24 9.85 62.79 9.75ZM63.24 9.05L63.24 9.05Q62.94 9.05 62.94 9.35L62.94 9.35Q62.94 9.4 62.99 9.5 63.04 9.6 63.14 9.6L63.14 9.6Q63.29 9.6 63.29 9.25L63.29 9.25Q63.29 9.05 63.24 9.05ZM68.39-0.4L68.39-0.4Q68.49-0.4 68.49-0.25L68.49-0.25Q68.49 0.05 68.24 0.05L68.24 0.05Q68.09 0.05 68.09-0.1L68.09-0.1Q68.09-0.4 68.39-0.4ZM66.04 3.45L65.74 3.6 65.64 4.05 65.94 3.85 66.04 3.45ZM63.34 8.65L63.39 8.45Q63.29 8.45 63.24 8.5 63.19 8.55 63.14 8.55L63.14 8.55 63.04 8.85 63.34 8.65ZM66.79 1.7L66.79 1.9 66.84 2.15 66.94 1.95 66.79 1.7ZM63.89 7.55L63.59 7.7 63.79 7.75 63.89 7.55Z" opacity="1" transform="matrix(1,0,0,1,0,0)" fill="#000000" class="undefined-text-0" data-fill-palette-color="quaternary" id="text-0"></path></svg></g></svg></g></svg></g></svg></g><g></g></svg></g></svg><rect width="98.88" height="44.11029760892895" fill="none" stroke="none" visibility="hidden"></rect></g></svg></g></svg>